<svg xmlns="http://www.w3.org/2000/svg" xmlns:xlink="http://www.w3.org/1999/xlink" contentStyleType="text/css" data-diagram-type="CLASS" height="1205px" preserveAspectRatio="none" style="width:2709px;height:1205px;background:#FFFFFF;" version="1.1" viewBox="0 0 2709 1205" width="2709px" zoomAndPan="magnify"><defs/><g><!--class auth--><g class="entity" data-entity="auth" data-source-line="5" data-uid="ent0002" id="entity_auth"><rect fill="#FFFFFF" height="111.0732" rx="2.5" ry="2.5" style="stroke:#000000;stroke-width:1;" width="224.2178" x="726" y="387"/><text fill="#000000" font-family="Verdana" font-size="14" lengthAdjust="spacing" textLength="78.4424" x="798.8877" y="406.0752">Auth (&#51064;&#51613;)</text><line style="stroke:#000000;stroke-width:1;" x1="727" x2="949.2178" y1="414.0146" y2="414.0146"/><ellipse cx="737" cy="428.022" fill="#FFFFFF" rx="3" ry="3" style="stroke:#000000;stroke-width:1;"/><text fill="#000000" font-family="Verdana" font-size="14" lengthAdjust="spacing" textLength="103.749" x="744" y="432.0898">id : Long &#171;PK&#187;</text><line style="stroke:#000000;stroke-width:1;" x1="727" x2="949.2178" y1="439.0293" y2="439.0293"/><ellipse cx="737" cy="453.0366" fill="#FFFFFF" rx="3" ry="3" style="stroke:#000000;stroke-width:1;"/><text fill="#000000" font-family="Verdana" font-size="14" lengthAdjust="spacing" textLength="200.2178" x="744" y="457.1045">username : String &#171;Unique&#187;</text><ellipse cx="737" cy="470.0513" fill="#FFFFFF" rx="3" ry="3" style="stroke:#000000;stroke-width:1;"/><text fill="#000000" font-family="Verdana" font-size="14" lengthAdjust="spacing" textLength="125.0566" x="744" y="474.1191">password : String</text><text fill="#000000" font-family="Verdana" font-size="14" lengthAdjust="spacing" textLength="132.6992" x="744" y="491.1338">role : List&lt;String&gt;</text></g><!--class refresh_token--><g class="entity" data-entity="refresh_token" data-source-line="13" data-uid="ent0003" id="entity_refresh_token"><rect fill="#FFFFFF" height="111.0732" rx="2.5" ry="2.5" style="stroke:#000000;stroke-width:1;" width="208.6309" x="1122.5" y="114"/><text fill="#000000" font-family="Verdana" font-size="14" lengthAdjust="spacing" textLength="202.6309" x="1125.5" y="133.0752">RefreshToken (&#47532;&#54532;&#47112;&#49884; &#53664;&#53360;)</text><line style="stroke:#000000;stroke-width:1;" x1="1123.5" x2="1330.1309" y1="141.0146" y2="141.0146"/><ellipse cx="1133.5" cy="155.022" fill="#FFFFFF" rx="3" ry="3" style="stroke:#000000;stroke-width:1;"/><text fill="#000000" font-family="Verdana" font-size="14" lengthAdjust="spacing" textLength="103.749" x="1140.5" y="159.0898">id : Long &#171;PK&#187;</text><line style="stroke:#000000;stroke-width:1;" x1="1123.5" x2="1330.1309" y1="166.0293" y2="166.0293"/><ellipse cx="1133.5" cy="180.0366" fill="#FFFFFF" rx="3" ry="3" style="stroke:#000000;stroke-width:1;"/><text fill="#000000" font-family="Verdana" font-size="14" lengthAdjust="spacing" textLength="170.0234" x="1140.5" y="184.1045">token : String &#171;Unique&#187;</text><ellipse cx="1133.5" cy="197.0513" fill="#FFFFFF" rx="3" ry="3" style="stroke:#000000;stroke-width:1;"/><text fill="#000000" font-family="Verdana" font-size="14" lengthAdjust="spacing" textLength="128.3789" x="1140.5" y="201.1191">username : String</text><ellipse cx="1133.5" cy="214.0659" fill="#FFFFFF" rx="3" ry="3" style="stroke:#000000;stroke-width:1;"/><text fill="#000000" font-family="Verdana" font-size="14" lengthAdjust="spacing" textLength="126.5742" x="1140.5" y="218.1338">expiryDate : Long</text></g><!--class user_table--><g class="entity" data-entity="user_table" data-source-line="21" data-uid="ent0004" id="entity_user_table"><rect fill="#FFFFFF" height="179.1318" rx="2.5" ry="2.5" style="stroke:#000000;stroke-width:1;" width="243.6523" x="843" y="80"/><text fill="#000000" font-family="Verdana" font-size="14" lengthAdjust="spacing" textLength="91.4922" x="919.0801" y="99.0752">User (&#49324;&#50857;&#51088;)</text><line style="stroke:#000000;stroke-width:1;" x1="844" x2="1085.6523" y1="107.0146" y2="107.0146"/><ellipse cx="854" cy="121.022" fill="#FFFFFF" rx="3" ry="3" style="stroke:#000000;stroke-width:1;"/><text fill="#000000" font-family="Verdana" font-size="14" lengthAdjust="spacing" textLength="103.749" x="861" y="125.0898">id : Long &#171;PK&#187;</text><line style="stroke:#000000;stroke-width:1;" x1="844" x2="1085.6523" y1="132.0293" y2="132.0293"/><ellipse cx="854" cy="146.0366" fill="#FFFFFF" rx="3" ry="3" style="stroke:#000000;stroke-width:1;"/><text fill="#000000" font-family="Verdana" font-size="14" lengthAdjust="spacing" textLength="97.9111" x="861" y="150.1045">name : String</text><text fill="#000000" font-family="Verdana" font-size="14" lengthAdjust="spacing" textLength="101.9648" x="861" y="167.1191">phone : String</text><text fill="#000000" font-family="Verdana" font-size="14" lengthAdjust="spacing" textLength="113.4424" x="861" y="184.1338">address : String</text><text fill="#000000" font-family="Verdana" font-size="14" lengthAdjust="spacing" textLength="113.9277" x="861" y="201.1484">active : Boolean</text><text fill="#000000" font-family="Verdana" font-size="14" lengthAdjust="spacing" textLength="189.3623" x="861" y="218.1631">clubMemberStatus : String</text><text fill="#000000" font-family="Verdana" font-size="14" lengthAdjust="spacing" textLength="219.6523" x="861" y="235.1777">fashionNewsFrequency : String</text><ellipse cx="854" cy="248.1245" fill="#FFFFFF" rx="3" ry="3" style="stroke:#000000;stroke-width:1;"/><text fill="#000000" font-family="Verdana" font-size="14" lengthAdjust="spacing" textLength="143.8965" x="861" y="252.1924">auth_id : Long &#171;FK&#187;</text></g><!--class product--><g class="entity" data-entity="product" data-source-line="33" data-uid="ent0005" id="entity_product"><rect fill="#FFFFFF" height="315.249" rx="2.5" ry="2.5" style="stroke:#000000;stroke-width:1;" width="331.8018" x="1197" y="746"/><text fill="#000000" font-family="Verdana" font-size="14" lengthAdjust="spacing" textLength="98.9434" x="1313.4292" y="765.0752">Product (&#49345;&#54408;)</text><line style="stroke:#000000;stroke-width:1;" x1="1198" x2="1527.8018" y1="773.0146" y2="773.0146"/><ellipse cx="1208" cy="787.022" fill="#FFFFFF" rx="3" ry="3" style="stroke:#000000;stroke-width:1;"/><text fill="#000000" font-family="Verdana" font-size="14" lengthAdjust="spacing" textLength="184.0098" x="1215" y="791.0898">product_id : Integer &#171;PK&#187;</text><line style="stroke:#000000;stroke-width:1;" x1="1198" x2="1527.8018" y1="798.0293" y2="798.0293"/><ellipse cx="1208" cy="812.0366" fill="#FFFFFF" rx="3" ry="3" style="stroke:#000000;stroke-width:1;"/><text fill="#000000" font-family="Verdana" font-size="14" lengthAdjust="spacing" textLength="163.1875" x="1215" y="816.1045">product_code : Integer</text><ellipse cx="1208" cy="829.0513" fill="#FFFFFF" rx="3" ry="3" style="stroke:#000000;stroke-width:1;"/><text fill="#000000" font-family="Verdana" font-size="14" lengthAdjust="spacing" textLength="138.7285" x="1215" y="833.1191">prod_name : String</text><text fill="#000000" font-family="Verdana" font-size="14" lengthAdjust="spacing" textLength="137.9082" x="1215" y="850.1338">detail_desc : String</text><text fill="#000000" font-family="Verdana" font-size="14" lengthAdjust="spacing" textLength="128.666" x="1215" y="867.1484">price : BigDecimal</text><text fill="#000000" font-family="Verdana" font-size="14" lengthAdjust="spacing" textLength="228.1699" x="1215" y="884.1631">product_type_no : Integer &#171;FK&#187;</text><text fill="#000000" font-family="Verdana" font-size="14" lengthAdjust="spacing" textLength="270.4844" x="1215" y="901.1777">product_group_code : Character &#171;FK&#187;</text><text fill="#000000" font-family="Verdana" font-size="14" lengthAdjust="spacing" textLength="289.2695" x="1215" y="918.1924">graphical_appearance_no : Integer &#171;FK&#187;</text><text fill="#000000" font-family="Verdana" font-size="14" lengthAdjust="spacing" textLength="242.9561" x="1215" y="935.207">colour_group_code : Integer &#171;FK&#187;</text><text fill="#000000" font-family="Verdana" font-size="14" lengthAdjust="spacing" textLength="296.3857" x="1215" y="952.2217">perceived_colour_value_id : Integer &#171;FK&#187;</text><text fill="#000000" font-family="Verdana" font-size="14" lengthAdjust="spacing" textLength="307.8018" x="1215" y="969.2363">perceived_colour_master_id : Integer &#171;FK&#187;</text><text fill="#000000" font-family="Verdana" font-size="14" lengthAdjust="spacing" textLength="216.8359" x="1215" y="986.251">department_no : Integer &#171;FK&#187;</text><text fill="#000000" font-family="Verdana" font-size="14" lengthAdjust="spacing" textLength="205.2695" x="1215" y="1003.2656">index_code : Character &#171;FK&#187;</text><text fill="#000000" font-family="Verdana" font-size="14" lengthAdjust="spacing" textLength="222.5439" x="1215" y="1020.2803">index_group_no : Integer &#171;FK&#187;</text><text fill="#000000" font-family="Verdana" font-size="14" lengthAdjust="spacing" textLength="184.4609" x="1215" y="1037.2949">section_no : Integer &#171;FK&#187;</text><text fill="#000000" font-family="Verdana" font-size="14" lengthAdjust="spacing" textLength="243.9336" x="1215" y="1054.3096">garment_group_no : Integer &#171;FK&#187;</text></g><!--class product_image--><g class="entity" data-entity="product_image" data-source-line="53" data-uid="ent0006" id="entity_product_image"><rect fill="#FFFFFF" height="77.0439" rx="2.5" ry="2.5" style="stroke:#000000;stroke-width:1;" width="235.7705" x="12" y="1121"/><text fill="#000000" font-family="Verdana" font-size="14" lengthAdjust="spacing" textLength="190.8457" x="34.4624" y="1140.0752">ProductImage (&#49345;&#54408; &#51060;&#48120;&#51648;)</text><line style="stroke:#000000;stroke-width:1;" x1="13" x2="246.7705" y1="1148.0146" y2="1148.0146"/><ellipse cx="23" cy="1162.022" fill="#FFFFFF" rx="3" ry="3" style="stroke:#000000;stroke-width:1;"/><text fill="#000000" font-family="Verdana" font-size="14" lengthAdjust="spacing" textLength="211.7705" x="30" y="1166.0898">product_id : Integer &#171;PK, FK&#187;</text><line style="stroke:#000000;stroke-width:1;" x1="13" x2="246.7705" y1="1173.0293" y2="1173.0293"/><text fill="#000000" font-family="Verdana" font-size="14" lengthAdjust="spacing" textLength="129.1924" x="18" y="1191.1045">image_url : String</text></g><!--class product_search--><g class="entity" data-entity="product_search" data-source-line="59" data-uid="ent0007" id="entity_product_search"><rect fill="#FFFFFF" height="315.249" rx="2.5" ry="2.5" style="stroke:#000000;stroke-width:1;" width="296.5869" x="1366.5" y="12"/><text fill="#000000" font-family="Verdana" font-size="14" lengthAdjust="spacing" textLength="214.9834" x="1407.3018" y="31.0752">ProductSearch (&#49345;&#54408; &#44160;&#49353; - V2)</text><line style="stroke:#000000;stroke-width:1;" x1="1367.5" x2="1662.0869" y1="39.0146" y2="39.0146"/><ellipse cx="1377.5" cy="53.022" fill="#FFFFFF" rx="3" ry="3" style="stroke:#000000;stroke-width:1;"/><text fill="#000000" font-family="Verdana" font-size="14" lengthAdjust="spacing" textLength="184.0098" x="1384.5" y="57.0898">product_id : Integer &#171;PK&#187;</text><line style="stroke:#000000;stroke-width:1;" x1="1367.5" x2="1662.0869" y1="64.0293" y2="64.0293"/><text fill="#000000" font-family="Verdana" font-size="14" lengthAdjust="spacing" textLength="138.7285" x="1372.5" y="82.1045">prod_name : String</text><text fill="#000000" font-family="Verdana" font-size="14" lengthAdjust="spacing" textLength="137.9082" x="1372.5" y="99.1191">detail_desc : String</text><text fill="#000000" font-family="Verdana" font-size="14" lengthAdjust="spacing" textLength="128.666" x="1372.5" y="116.1338">price : BigDecimal</text><text fill="#000000" font-family="Verdana" font-size="14" lengthAdjust="spacing" textLength="129.1924" x="1372.5" y="133.1484">image_url : String</text><text fill="#000000" font-family="Verdana" font-size="14" lengthAdjust="spacing" textLength="200.1631" x="1372.5" y="150.1631">product_type_name : String</text><text fill="#000000" font-family="Verdana" font-size="14" lengthAdjust="spacing" textLength="210.0752" x="1372.5" y="167.1777">product_group_name : String</text><text fill="#000000" font-family="Verdana" font-size="14" lengthAdjust="spacing" textLength="261.2627" x="1372.5" y="184.1924">graphical_appearance_name : String</text><text fill="#000000" font-family="Verdana" font-size="14" lengthAdjust="spacing" textLength="199.4521" x="1372.5" y="201.207">colour_group_name : String</text><text fill="#000000" font-family="Verdana" font-size="14" lengthAdjust="spacing" textLength="273.1709" x="1372.5" y="218.2217">perceived_colour_value_name : String</text><text fill="#000000" font-family="Verdana" font-size="14" lengthAdjust="spacing" textLength="284.5869" x="1372.5" y="235.2363">perceived_colour_master_name : String</text><text fill="#000000" font-family="Verdana" font-size="14" lengthAdjust="spacing" textLength="188.8291" x="1372.5" y="252.251">department_name : String</text><text fill="#000000" font-family="Verdana" font-size="14" lengthAdjust="spacing" textLength="144.8604" x="1372.5" y="269.2656">index_name : String</text><text fill="#000000" font-family="Verdana" font-size="14" lengthAdjust="spacing" textLength="194.5371" x="1372.5" y="286.2803">index_group_name : String</text><text fill="#000000" font-family="Verdana" font-size="14" lengthAdjust="spacing" textLength="156.4541" x="1372.5" y="303.2949">section_name : String</text><text fill="#000000" font-family="Verdana" font-size="14" lengthAdjust="spacing" textLength="215.9268" x="1372.5" y="320.3096">garment_group_name : String</text></g><!--class order_table--><g class="entity" data-entity="order_table" data-source-line="79" data-uid="ent0008" id="entity_order_table"><rect fill="#FFFFFF" height="111.0732" rx="2.5" ry="2.5" style="stroke:#000000;stroke-width:1;" width="214.0732" x="985" y="387"/><text fill="#000000" font-family="Verdana" font-size="14" lengthAdjust="spacing" textLength="85.668" x="1049.2026" y="406.0752">Order (&#51452;&#47928;)</text><line style="stroke:#000000;stroke-width:1;" x1="986" x2="1198.0732" y1="414.0146" y2="414.0146"/><ellipse cx="996" cy="428.022" fill="#FFFFFF" rx="3" ry="3" style="stroke:#000000;stroke-width:1;"/><text fill="#000000" font-family="Verdana" font-size="14" lengthAdjust="spacing" textLength="103.749" x="1003" y="432.0898">id : Long &#171;PK&#187;</text><line style="stroke:#000000;stroke-width:1;" x1="986" x2="1198.0732" y1="439.0293" y2="439.0293"/><ellipse cx="996" cy="453.0366" fill="#FFFFFF" rx="3" ry="3" style="stroke:#000000;stroke-width:1;"/><text fill="#000000" font-family="Verdana" font-size="14" lengthAdjust="spacing" textLength="142.7207" x="1003" y="457.1045">user_id : Long &#171;FK&#187;</text><ellipse cx="996" cy="470.0513" fill="#FFFFFF" rx="3" ry="3" style="stroke:#000000;stroke-width:1;"/><text fill="#000000" font-family="Verdana" font-size="14" lengthAdjust="spacing" textLength="190.0732" x="1003" y="474.1191">orderDate : LocalDateTime</text><ellipse cx="996" cy="487.0659" fill="#FFFFFF" rx="3" ry="3" style="stroke:#000000;stroke-width:1;"/><text fill="#000000" font-family="Verdana" font-size="14" lengthAdjust="spacing" textLength="101.5752" x="1003" y="491.1338">status : String</text></g><!--class order_detail--><g class="entity" data-entity="order_detail" data-source-line="87" data-uid="ent0009" id="entity_order_detail"><rect fill="#FFFFFF" height="128.0879" rx="2.5" ry="2.5" style="stroke:#000000;stroke-width:1;" width="207.6133" x="988" y="558"/><text fill="#000000" font-family="Verdana" font-size="14" lengthAdjust="spacing" textLength="159.3252" x="1012.144" y="577.0752">OrderDetail (&#51452;&#47928; &#49345;&#49464;)</text><line style="stroke:#000000;stroke-width:1;" x1="989" x2="1194.6133" y1="585.0146" y2="585.0146"/><ellipse cx="999" cy="599.022" fill="#FFFFFF" rx="3" ry="3" style="stroke:#000000;stroke-width:1;"/><text fill="#000000" font-family="Verdana" font-size="14" lengthAdjust="spacing" textLength="103.749" x="1006" y="603.0898">id : Long &#171;PK&#187;</text><line style="stroke:#000000;stroke-width:1;" x1="989" x2="1194.6133" y1="610.0293" y2="610.0293"/><ellipse cx="999" cy="624.0366" fill="#FFFFFF" rx="3" ry="3" style="stroke:#000000;stroke-width:1;"/><text fill="#000000" font-family="Verdana" font-size="14" lengthAdjust="spacing" textLength="149.7617" x="1006" y="628.1045">order_id : Long &#171;FK&#187;</text><ellipse cx="999" cy="641.0513" fill="#FFFFFF" rx="3" ry="3" style="stroke:#000000;stroke-width:1;"/><text fill="#000000" font-family="Verdana" font-size="14" lengthAdjust="spacing" textLength="183.6133" x="1006" y="645.1191">product_id : Integer &#171;FK&#187;</text><ellipse cx="999" cy="658.0659" fill="#FFFFFF" rx="3" ry="3" style="stroke:#000000;stroke-width:1;"/><text fill="#000000" font-family="Verdana" font-size="14" lengthAdjust="spacing" textLength="125.8564" x="1006" y="662.1338">quantity : Integer</text><ellipse cx="999" cy="675.0806" fill="#FFFFFF" rx="3" ry="3" style="stroke:#000000;stroke-width:1;"/><text fill="#000000" font-family="Verdana" font-size="14" lengthAdjust="spacing" textLength="128.666" x="1006" y="679.1484">price : BigDecimal</text></g><!--class co_purchase--><g class="entity" data-entity="co_purchase" data-source-line="96" data-uid="ent0010" id="entity_co_purchase"><rect fill="#FFFFFF" height="111.0732" rx="2.5" ry="2.5" style="stroke:#000000;stroke-width:1;" width="262.7725" x="1231.5" y="566.5"/><text fill="#000000" font-family="Verdana" font-size="14" lengthAdjust="spacing" textLength="207.2246" x="1259.2739" y="585.5752">CoPurchase (&#54632;&#44760; &#44396;&#47588;&#54620; &#49345;&#54408;)</text><line style="stroke:#000000;stroke-width:1;" x1="1232.5" x2="1493.2725" y1="593.5146" y2="593.5146"/><ellipse cx="1242.5" cy="607.522" fill="#FFFFFF" rx="3" ry="3" style="stroke:#000000;stroke-width:1;"/><text fill="#000000" font-family="Verdana" font-size="14" lengthAdjust="spacing" textLength="103.749" x="1249.5" y="611.5898">id : Long &#171;PK&#187;</text><line style="stroke:#000000;stroke-width:1;" x1="1232.5" x2="1493.2725" y1="618.5293" y2="618.5293"/><ellipse cx="1242.5" cy="632.5366" fill="#FFFFFF" rx="3" ry="3" style="stroke:#000000;stroke-width:1;"/><text fill="#000000" font-family="Verdana" font-size="14" lengthAdjust="spacing" textLength="238.7725" x="1249.5" y="636.6045">source_product_id : Integer &#171;FK&#187;</text><ellipse cx="1242.5" cy="649.5513" fill="#FFFFFF" rx="3" ry="3" style="stroke:#000000;stroke-width:1;"/><text fill="#000000" font-family="Verdana" font-size="14" lengthAdjust="spacing" textLength="234.9922" x="1249.5" y="653.6191">target_product_id : Integer &#171;FK&#187;</text><ellipse cx="1242.5" cy="666.5659" fill="#FFFFFF" rx="3" ry="3" style="stroke:#000000;stroke-width:1;"/><text fill="#000000" font-family="Verdana" font-size="14" lengthAdjust="spacing" textLength="87.9102" x="1249.5" y="670.6338">score : Float</text></g><!--class pt--><g class="entity" data-entity="pt" data-source-line="104" data-uid="ent0011" id="entity_pt"><rect fill="#FFFFFF" height="60.0293" rx="2.5" ry="2.5" style="stroke:#000000;stroke-width:1;" width="173.0303" x="283.5" y="1129.5"/><text fill="#000000" font-family="Verdana" font-size="14" lengthAdjust="spacing" textLength="87.2813" x="326.3745" y="1148.5752">ProductType</text><line style="stroke:#000000;stroke-width:1;" x1="284.5" x2="455.5303" y1="1156.5146" y2="1156.5146"/><ellipse cx="294.5" cy="1170.522" fill="#FFFFFF" rx="3" ry="3" style="stroke:#000000;stroke-width:1;"/><text fill="#000000" font-family="Verdana" font-size="14" lengthAdjust="spacing" textLength="149.0303" x="301.5" y="1174.5898">product_type_no: PK</text><line style="stroke:#000000;stroke-width:1;" x1="284.5" x2="455.5303" y1="1181.5293" y2="1181.5293"/></g><!--class pg--><g class="entity" data-entity="pg" data-source-line="107" data-uid="ent0012" id="entity_pg"><rect fill="#FFFFFF" height="60.0293" rx="2.5" ry="2.5" style="stroke:#000000;stroke-width:1;" width="198.4395" x="492" y="1129.5"/><text fill="#000000" font-family="Verdana" font-size="14" lengthAdjust="spacing" textLength="96.2158" x="543.1118" y="1148.5752">ProductGroup</text><line style="stroke:#000000;stroke-width:1;" x1="493" x2="689.4395" y1="1156.5146" y2="1156.5146"/><ellipse cx="503" cy="1170.522" fill="#FFFFFF" rx="3" ry="3" style="stroke:#000000;stroke-width:1;"/><text fill="#000000" font-family="Verdana" font-size="14" lengthAdjust="spacing" textLength="174.4395" x="510" y="1174.5898">product_group_code: PK</text><line style="stroke:#000000;stroke-width:1;" x1="493" x2="689.4395" y1="1181.5293" y2="1181.5293"/></g><!--class cg--><g class="entity" data-entity="cg" data-source-line="110" data-uid="ent0013" id="entity_cg"><rect fill="#FFFFFF" height="60.0293" rx="2.5" ry="2.5" style="stroke:#000000;stroke-width:1;" width="187.8164" x="725" y="1129.5"/><text fill="#000000" font-family="Verdana" font-size="14" lengthAdjust="spacing" textLength="88.3545" x="774.731" y="1148.5752">ColourGroup</text><line style="stroke:#000000;stroke-width:1;" x1="726" x2="911.8164" y1="1156.5146" y2="1156.5146"/><ellipse cx="736" cy="1170.522" fill="#FFFFFF" rx="3" ry="3" style="stroke:#000000;stroke-width:1;"/><text fill="#000000" font-family="Verdana" font-size="14" lengthAdjust="spacing" textLength="163.8164" x="743" y="1174.5898">colour_group_code: PK</text><line style="stroke:#000000;stroke-width:1;" x1="726" x2="911.8164" y1="1181.5293" y2="1181.5293"/></g><!--class dept--><g class="entity" data-entity="dept" data-source-line="113" data-uid="ent0014" id="entity_dept"><rect fill="#FFFFFF" height="60.0293" rx="2.5" ry="2.5" style="stroke:#000000;stroke-width:1;" width="161.6963" x="948" y="1129.5"/><text fill="#000000" font-family="Verdana" font-size="14" lengthAdjust="spacing" textLength="84.082" x="986.8071" y="1148.5752">Department</text><line style="stroke:#000000;stroke-width:1;" x1="949" x2="1108.6963" y1="1156.5146" y2="1156.5146"/><ellipse cx="959" cy="1170.522" fill="#FFFFFF" rx="3" ry="3" style="stroke:#000000;stroke-width:1;"/><text fill="#000000" font-family="Verdana" font-size="14" lengthAdjust="spacing" textLength="137.6963" x="966" y="1174.5898">department_no: PK</text><line style="stroke:#000000;stroke-width:1;" x1="949" x2="1108.6963" y1="1181.5293" y2="1181.5293"/></g><!--class gg--><g class="entity" data-entity="gg" data-source-line="116" data-uid="ent0015" id="entity_gg"><rect fill="#FFFFFF" height="60.0293" rx="2.5" ry="2.5" style="stroke:#000000;stroke-width:1;" width="188.7939" x="1145.5" y="1129.5"/><text fill="#000000" font-family="Verdana" font-size="14" lengthAdjust="spacing" textLength="104.4805" x="1187.6567" y="1148.5752">GarmentGroup</text><line style="stroke:#000000;stroke-width:1;" x1="1146.5" x2="1333.2939" y1="1156.5146" y2="1156.5146"/><ellipse cx="1156.5" cy="1170.522" fill="#FFFFFF" rx="3" ry="3" style="stroke:#000000;stroke-width:1;"/><text fill="#000000" font-family="Verdana" font-size="14" lengthAdjust="spacing" textLength="164.7939" x="1163.5" y="1174.5898">garment_group_no: PK</text><line style="stroke:#000000;stroke-width:1;" x1="1146.5" x2="1333.2939" y1="1181.5293" y2="1181.5293"/></g><!--class ga--><g class="entity" data-entity="ga" data-source-line="119" data-uid="ent0016" id="entity_ga"><rect fill="#FFFFFF" height="60.0293" rx="2.5" ry="2.5" style="stroke:#000000;stroke-width:1;" width="234.1299" x="1370" y="1129.5"/><text fill="#000000" font-family="Verdana" font-size="14" lengthAdjust="spacing" textLength="148.8457" x="1412.6421" y="1148.5752">GraphicalAppearance</text><line style="stroke:#000000;stroke-width:1;" x1="1371" x2="1603.1299" y1="1156.5146" y2="1156.5146"/><ellipse cx="1381" cy="1170.522" fill="#FFFFFF" rx="3" ry="3" style="stroke:#000000;stroke-width:1;"/><text fill="#000000" font-family="Verdana" font-size="14" lengthAdjust="spacing" textLength="210.1299" x="1388" y="1174.5898">graphical_appearance_no: PK</text><line style="stroke:#000000;stroke-width:1;" x1="1371" x2="1603.1299" y1="1181.5293" y2="1181.5293"/></g><!--class idx--><g class="entity" data-entity="idx" data-source-line="122" data-uid="ent0017" id="entity_idx"><rect fill="#FFFFFF" height="60.0293" rx="2.5" ry="2.5" style="stroke:#000000;stroke-width:1;" width="133.2246" x="1639.5" y="1129.5"/><text fill="#000000" font-family="Verdana" font-size="14" lengthAdjust="spacing" textLength="40.0996" x="1686.0625" y="1148.5752">Index</text><line style="stroke:#000000;stroke-width:1;" x1="1640.5" x2="1771.7246" y1="1156.5146" y2="1156.5146"/><ellipse cx="1650.5" cy="1170.522" fill="#FFFFFF" rx="3" ry="3" style="stroke:#000000;stroke-width:1;"/><text fill="#000000" font-family="Verdana" font-size="14" lengthAdjust="spacing" textLength="109.2246" x="1657.5" y="1174.5898">index_code: PK</text><line style="stroke:#000000;stroke-width:1;" x1="1640.5" x2="1771.7246" y1="1181.5293" y2="1181.5293"/></g><!--class ig--><g class="entity" data-entity="ig" data-source-line="125" data-uid="ent0018" id="entity_ig"><rect fill="#FFFFFF" height="60.0293" rx="2.5" ry="2.5" style="stroke:#000000;stroke-width:1;" width="167.4043" x="1807.5" y="1129.5"/><text fill="#000000" font-family="Verdana" font-size="14" lengthAdjust="spacing" textLength="83.0088" x="1849.6978" y="1148.5752">IndexGroup</text><line style="stroke:#000000;stroke-width:1;" x1="1808.5" x2="1973.9043" y1="1156.5146" y2="1156.5146"/><ellipse cx="1818.5" cy="1170.522" fill="#FFFFFF" rx="3" ry="3" style="stroke:#000000;stroke-width:1;"/><text fill="#000000" font-family="Verdana" font-size="14" lengthAdjust="spacing" textLength="143.4043" x="1825.5" y="1174.5898">index_group_no: PK</text><line style="stroke:#000000;stroke-width:1;" x1="1808.5" x2="1973.9043" y1="1181.5293" y2="1181.5293"/></g><!--class pcm--><g class="entity" data-entity="pcm" data-source-line="128" data-uid="ent0019" id="entity_pcm"><rect fill="#FFFFFF" height="60.0293" rx="2.5" ry="2.5" style="stroke:#000000;stroke-width:1;" width="252.6621" x="2009.5" y="1129.5"/><text fill="#000000" font-family="Verdana" font-size="14" lengthAdjust="spacing" textLength="160.3574" x="2055.6523" y="1148.5752">PerceivedColourMaster</text><line style="stroke:#000000;stroke-width:1;" x1="2010.5" x2="2261.1621" y1="1156.5146" y2="1156.5146"/><ellipse cx="2020.5" cy="1170.522" fill="#FFFFFF" rx="3" ry="3" style="stroke:#000000;stroke-width:1;"/><text fill="#000000" font-family="Verdana" font-size="14" lengthAdjust="spacing" textLength="228.6621" x="2027.5" y="1174.5898">perceived_colour_master_id: PK</text><line style="stroke:#000000;stroke-width:1;" x1="2010.5" x2="2261.1621" y1="1181.5293" y2="1181.5293"/></g><!--class pcv--><g class="entity" data-entity="pcv" data-source-line="131" data-uid="ent0020" id="entity_pcv"><rect fill="#FFFFFF" height="60.0293" rx="2.5" ry="2.5" style="stroke:#000000;stroke-width:1;" width="241.2461" x="2297.5" y="1129.5"/><text fill="#000000" font-family="Verdana" font-size="14" lengthAdjust="spacing" textLength="152.0449" x="2342.1006" y="1148.5752">PerceivedColourValue</text><line style="stroke:#000000;stroke-width:1;" x1="2298.5" x2="2537.7461" y1="1156.5146" y2="1156.5146"/><ellipse cx="2308.5" cy="1170.522" fill="#FFFFFF" rx="3" ry="3" style="stroke:#000000;stroke-width:1;"/><text fill="#000000" font-family="Verdana" font-size="14" lengthAdjust="spacing" textLength="217.2461" x="2315.5" y="1174.5898">perceived_colour_value_id: PK</text><line style="stroke:#000000;stroke-width:1;" x1="2298.5" x2="2537.7461" y1="1181.5293" y2="1181.5293"/></g><!--class sec--><g class="entity" data-entity="sec" data-source-line="134" data-uid="ent0021" id="entity_sec"><rect fill="#FFFFFF" height="60.0293" rx="2.5" ry="2.5" style="stroke:#000000;stroke-width:1;" width="129.3213" x="2573.5" y="1129.5"/><text fill="#000000" font-family="Verdana" font-size="14" lengthAdjust="spacing" textLength="51.9189" x="2612.2012" y="1148.5752">Section</text><line style="stroke:#000000;stroke-width:1;" x1="2574.5" x2="2701.8213" y1="1156.5146" y2="1156.5146"/><ellipse cx="2584.5" cy="1170.522" fill="#FFFFFF" rx="3" ry="3" style="stroke:#000000;stroke-width:1;"/><text fill="#000000" font-family="Verdana" font-size="14" lengthAdjust="spacing" textLength="105.3213" x="2591.5" y="1174.5898">section_no: PK</text><line style="stroke:#000000;stroke-width:1;" x1="2574.5" x2="2701.8213" y1="1181.5293" y2="1181.5293"/></g><!--link user_table to auth--><g class="link" data-entity-1="user_table" data-entity-2="auth" data-source-line="139" data-uid="lnk22" id="link_user_table_auth"><path codeLine="139" d="M896.5,267.27 C896.5,309.38 896.5,342.25 896.5,378.92" fill="none" id="user_table-auth" style="stroke:#000000;stroke-width:1;stroke-dasharray:7,7;"/><line style="stroke:#000000;stroke-width:1;" x1="892.5" x2="900.5" y1="263.27" y2="263.27"/><line style="stroke:#000000;stroke-width:1;" x1="892.5" x2="900.5" y1="266.27" y2="266.27"/><line style="stroke:#000000;stroke-width:1;" x1="896.5" x2="896.5" y1="267.27" y2="259.27"/><line style="stroke:#000000;stroke-width:1;" x1="900.5" x2="892.5" y1="382.92" y2="382.92"/><line style="stroke:#000000;stroke-width:1;" x1="900.5" x2="892.5" y1="379.92" y2="379.92"/><line style="stroke:#000000;stroke-width:1;" x1="896.5" x2="896.5" y1="378.92" y2="386.92"/><text fill="#000000" font-family="Verdana" font-size="13" lengthAdjust="spacing" textLength="22.4326" x="873.5" y="320.1598">1:1</text></g><!--link user_table to order_table--><g class="link" data-entity-1="user_table" data-entity-2="order_table" data-source-line="140" data-uid="lnk23" id="link_user_table_order_table"><path codeLine="140" d="M1036,267.27 C1036,309.38 1036,332.25 1036,368.92" fill="none" id="user_table-order_table" style="stroke:#000000;stroke-width:1;stroke-dasharray:7,7;"/><line style="stroke:#000000;stroke-width:1;" x1="1032" x2="1040" y1="263.27" y2="263.27"/><line style="stroke:#000000;stroke-width:1;" x1="1032" x2="1040" y1="266.27" y2="266.27"/><line style="stroke:#000000;stroke-width:1;" x1="1036" x2="1036" y1="267.27" y2="259.27"/><line style="stroke:#000000;stroke-width:1;" x1="1036" x2="1042" y1="378.92" y2="386.92"/><line style="stroke:#000000;stroke-width:1;" x1="1036" x2="1030" y1="378.92" y2="386.92"/><line style="stroke:#000000;stroke-width:1;" x1="1036" x2="1036" y1="378.92" y2="386.92"/><ellipse cx="1036" cy="372.92" fill="none" rx="4" ry="4" style="stroke:#000000;stroke-width:1;"/><text fill="#000000" font-family="Verdana" font-size="13" lengthAdjust="spacing" textLength="23.8926" x="1012" y="320.1598">1:N</text></g><!--link order_table to order_detail--><g class="link" data-entity-1="order_table" data-entity-2="order_detail" data-source-line="141" data-uid="lnk24" id="link_order_table_order_detail"><path codeLine="141" d="M1092,506.31 C1092,525.14 1092,520.32 1092,539.75" fill="none" id="order_table-order_detail" style="stroke:#000000;stroke-width:1;stroke-dasharray:7,7;"/><line style="stroke:#000000;stroke-width:1;" x1="1088" x2="1096" y1="502.31" y2="502.31"/><line style="stroke:#000000;stroke-width:1;" x1="1088" x2="1096" y1="505.31" y2="505.31"/><line style="stroke:#000000;stroke-width:1;" x1="1092" x2="1092" y1="506.31" y2="498.31"/><line style="stroke:#000000;stroke-width:1;" x1="1092" x2="1098" y1="549.75" y2="557.75"/><line style="stroke:#000000;stroke-width:1;" x1="1092" x2="1086" y1="549.75" y2="557.75"/><line style="stroke:#000000;stroke-width:1;" x1="1092" x2="1092" y1="549.75" y2="557.75"/><ellipse cx="1092" cy="543.75" fill="none" rx="4" ry="4" style="stroke:#000000;stroke-width:1;"/><text fill="#000000" font-family="Verdana" font-size="13" lengthAdjust="spacing" textLength="23.8926" x="1068" y="525.0998">1:N</text></g><!--link order_detail to product--><g class="link" data-entity-1="order_detail" data-entity-2="product" data-source-line="142" data-uid="lnk25" id="link_order_detail_product"><path codeLine="142" d="M1214.26,682 C1225.67,682 1215.25,682 1215.25,682 C1215.25,682 1215.25,701.83 1215.25,737.77" fill="none" id="order_detail-product" style="stroke:#000000;stroke-width:1;stroke-dasharray:7,7;"/><line style="stroke:#000000;stroke-width:1;" x1="1204.26" x2="1196.26" y1="682" y2="688"/><line style="stroke:#000000;stroke-width:1;" x1="1204.26" x2="1196.26" y1="682" y2="676"/><line style="stroke:#000000;stroke-width:1;" x1="1204.26" x2="1196.26" y1="682" y2="682"/><ellipse cx="1210.26" cy="682" fill="none" rx="4" ry="4" style="stroke:#000000;stroke-width:1;"/><line style="stroke:#000000;stroke-width:1;" x1="1219.25" x2="1211.25" y1="741.77" y2="741.77"/><line style="stroke:#000000;stroke-width:1;" x1="1219.25" x2="1211.25" y1="738.77" y2="738.77"/><line style="stroke:#000000;stroke-width:1;" x1="1215.25" x2="1215.25" y1="737.77" y2="745.77"/><text fill="#000000" font-family="Verdana" font-size="13" lengthAdjust="spacing" textLength="23.8926" x="1191.25" y="701.4598">N:1</text></g><!--link product to product_image--><g class="link" data-entity-1="product" data-entity-2="product_image" data-source-line="144" data-uid="lnk26" id="link_product_product_image"><path codeLine="144" d="M1242.83,1069.05 C1242.83,1105.58 1242.83,1126 1242.83,1126 C1242.83,1126 542.44,1126 256.04,1126" fill="none" id="product-product_image" style="stroke:#000000;stroke-width:1;stroke-dasharray:7,7;"/><line style="stroke:#000000;stroke-width:1;" x1="1238.83" x2="1246.83" y1="1065.05" y2="1065.05"/><line style="stroke:#000000;stroke-width:1;" x1="1238.83" x2="1246.83" y1="1068.05" y2="1068.05"/><line style="stroke:#000000;stroke-width:1;" x1="1242.83" x2="1242.83" y1="1069.05" y2="1061.05"/><line style="stroke:#000000;stroke-width:1;" x1="252.04" x2="252.04" y1="1130" y2="1122"/><line style="stroke:#000000;stroke-width:1;" x1="255.04" x2="255.04" y1="1130" y2="1122"/><line style="stroke:#000000;stroke-width:1;" x1="256.04" x2="248.04" y1="1126" y2="1126"/><text fill="#000000" font-family="Verdana" font-size="13" lengthAdjust="spacing" textLength="22.4326" x="754.91" y="1123.0698">1:1</text></g><!--link product to pt--><g class="link" data-entity-1="product" data-entity-2="pt" data-source-line="145" data-uid="lnk27" id="link_product_pt"><path codeLine="145" d="M1178.79,809 C896.11,809 370,809 370,809 C370,809 370,1036.29 370,1121.31" fill="none" id="product-pt" style="stroke:#000000;stroke-width:1;stroke-dasharray:7,7;"/><line style="stroke:#000000;stroke-width:1;" x1="1188.79" x2="1196.79" y1="809" y2="803"/><line style="stroke:#000000;stroke-width:1;" x1="1188.79" x2="1196.79" y1="809" y2="815"/><line style="stroke:#000000;stroke-width:1;" x1="1188.79" x2="1196.79" y1="809" y2="809"/><ellipse cx="1182.79" cy="809" fill="none" rx="4" ry="4" style="stroke:#000000;stroke-width:1;"/><line style="stroke:#000000;stroke-width:1;" x1="374" x2="366" y1="1125.31" y2="1125.31"/><line style="stroke:#000000;stroke-width:1;" x1="374" x2="366" y1="1122.31" y2="1122.31"/><line style="stroke:#000000;stroke-width:1;" x1="370" x2="370" y1="1121.31" y2="1129.31"/></g><!--link product to pg--><g class="link" data-entity-1="product" data-entity-2="pg" data-source-line="146" data-uid="lnk28" id="link_product_pg"><path codeLine="146" d="M1178.91,872 C952.02,872 591,872 591,872 C591,872 591,1047.46 591,1121.28" fill="none" id="product-pg" style="stroke:#000000;stroke-width:1;stroke-dasharray:7,7;"/><line style="stroke:#000000;stroke-width:1;" x1="1188.91" x2="1196.91" y1="872" y2="866"/><line style="stroke:#000000;stroke-width:1;" x1="1188.91" x2="1196.91" y1="872" y2="878"/><line style="stroke:#000000;stroke-width:1;" x1="1188.91" x2="1196.91" y1="872" y2="872"/><ellipse cx="1182.91" cy="872" fill="none" rx="4" ry="4" style="stroke:#000000;stroke-width:1;"/><line style="stroke:#000000;stroke-width:1;" x1="595" x2="587" y1="1125.28" y2="1125.28"/><line style="stroke:#000000;stroke-width:1;" x1="595" x2="587" y1="1122.28" y2="1122.28"/><line style="stroke:#000000;stroke-width:1;" x1="591" x2="591" y1="1121.28" y2="1129.28"/></g><!--link product to cg--><g class="link" data-entity-1="product" data-entity-2="cg" data-source-line="147" data-uid="lnk29" id="link_product_cg"><path codeLine="147" d="M1178.98,935 C1019.15,935 819.5,935 819.5,935 C819.5,935 819.5,1059.94 819.5,1121.22" fill="none" id="product-cg" style="stroke:#000000;stroke-width:1;stroke-dasharray:7,7;"/><line style="stroke:#000000;stroke-width:1;" x1="1188.98" x2="1196.98" y1="935" y2="929"/><line style="stroke:#000000;stroke-width:1;" x1="1188.98" x2="1196.98" y1="935" y2="941"/><line style="stroke:#000000;stroke-width:1;" x1="1188.98" x2="1196.98" y1="935" y2="935"/><ellipse cx="1182.98" cy="935" fill="none" rx="4" ry="4" style="stroke:#000000;stroke-width:1;"/><line style="stroke:#000000;stroke-width:1;" x1="823.5" x2="815.5" y1="1125.22" y2="1125.22"/><line style="stroke:#000000;stroke-width:1;" x1="823.5" x2="815.5" y1="1122.22" y2="1122.22"/><line style="stroke:#000000;stroke-width:1;" x1="819.5" x2="819.5" y1="1121.22" y2="1129.22"/></g><!--link product to dept--><g class="link" data-entity-1="product" data-entity-2="dept" data-source-line="148" data-uid="lnk30" id="link_product_dept"><path codeLine="148" d="M1178.81,998 C1103.49,998 1049,998 1049,998 C1049,998 1049,1074.34 1049,1121.12" fill="none" id="product-dept" style="stroke:#000000;stroke-width:1;stroke-dasharray:7,7;"/><line style="stroke:#000000;stroke-width:1;" x1="1188.81" x2="1196.81" y1="998" y2="992"/><line style="stroke:#000000;stroke-width:1;" x1="1188.81" x2="1196.81" y1="998" y2="1004"/><line style="stroke:#000000;stroke-width:1;" x1="1188.81" x2="1196.81" y1="998" y2="998"/><ellipse cx="1182.81" cy="998" fill="none" rx="4" ry="4" style="stroke:#000000;stroke-width:1;"/><line style="stroke:#000000;stroke-width:1;" x1="1053" x2="1045" y1="1125.12" y2="1125.12"/><line style="stroke:#000000;stroke-width:1;" x1="1053" x2="1045" y1="1122.12" y2="1122.12"/><line style="stroke:#000000;stroke-width:1;" x1="1049" x2="1049" y1="1121.12" y2="1129.12"/></g><!--link product to gg--><g class="link" data-entity-1="product" data-entity-2="gg" data-source-line="149" data-uid="lnk31" id="link_product_gg"><path codeLine="149" d="M1288.67,1079.26 C1288.67,1105.19 1288.67,1103.39 1288.67,1121.29" fill="none" id="product-gg" style="stroke:#000000;stroke-width:1;stroke-dasharray:7,7;"/><line style="stroke:#000000;stroke-width:1;" x1="1288.67" x2="1282.67" y1="1069.26" y2="1061.26"/><line style="stroke:#000000;stroke-width:1;" x1="1288.67" x2="1294.67" y1="1069.26" y2="1061.26"/><line style="stroke:#000000;stroke-width:1;" x1="1288.67" x2="1288.67" y1="1069.26" y2="1061.26"/><ellipse cx="1288.67" cy="1075.26" fill="none" rx="4" ry="4" style="stroke:#000000;stroke-width:1;"/><line style="stroke:#000000;stroke-width:1;" x1="1292.67" x2="1284.67" y1="1125.29" y2="1125.29"/><line style="stroke:#000000;stroke-width:1;" x1="1292.67" x2="1284.67" y1="1122.29" y2="1122.29"/><line style="stroke:#000000;stroke-width:1;" x1="1288.67" x2="1288.67" y1="1121.29" y2="1129.29"/></g><!--link product to ga--><g class="link" data-entity-1="product" data-entity-2="ga" data-source-line="150" data-uid="lnk32" id="link_product_ga"><path codeLine="150" d="M1449.5,1079.26 C1449.5,1105.19 1449.5,1103.39 1449.5,1121.29" fill="none" id="product-ga" style="stroke:#000000;stroke-width:1;stroke-dasharray:7,7;"/><line style="stroke:#000000;stroke-width:1;" x1="1449.5" x2="1443.5" y1="1069.26" y2="1061.26"/><line style="stroke:#000000;stroke-width:1;" x1="1449.5" x2="1455.5" y1="1069.26" y2="1061.26"/><line style="stroke:#000000;stroke-width:1;" x1="1449.5" x2="1449.5" y1="1069.26" y2="1061.26"/><ellipse cx="1449.5" cy="1075.26" fill="none" rx="4" ry="4" style="stroke:#000000;stroke-width:1;"/><line style="stroke:#000000;stroke-width:1;" x1="1453.5" x2="1445.5" y1="1125.29" y2="1125.29"/><line style="stroke:#000000;stroke-width:1;" x1="1453.5" x2="1445.5" y1="1122.29" y2="1122.29"/><line style="stroke:#000000;stroke-width:1;" x1="1449.5" x2="1449.5" y1="1121.29" y2="1129.29"/></g><!--link product to idx--><g class="link" data-entity-1="product" data-entity-2="idx" data-source-line="151" data-uid="lnk33" id="link_product_idx"><path codeLine="151" d="M1547.15,1009 C1611.28,1009 1651.5,1009 1651.5,1009 C1651.5,1009 1651.5,1077.49 1651.5,1121.41" fill="none" id="product-idx" style="stroke:#000000;stroke-width:1;stroke-dasharray:7,7;"/><line style="stroke:#000000;stroke-width:1;" x1="1537.15" x2="1529.15" y1="1009" y2="1015"/><line style="stroke:#000000;stroke-width:1;" x1="1537.15" x2="1529.15" y1="1009" y2="1003"/><line style="stroke:#000000;stroke-width:1;" x1="1537.15" x2="1529.15" y1="1009" y2="1009"/><ellipse cx="1543.15" cy="1009" fill="none" rx="4" ry="4" style="stroke:#000000;stroke-width:1;"/><line style="stroke:#000000;stroke-width:1;" x1="1655.5" x2="1647.5" y1="1125.41" y2="1125.41"/><line style="stroke:#000000;stroke-width:1;" x1="1655.5" x2="1647.5" y1="1122.41" y2="1122.41"/><line style="stroke:#000000;stroke-width:1;" x1="1651.5" x2="1651.5" y1="1121.41" y2="1129.41"/></g><!--link product to ig--><g class="link" data-entity-1="product" data-entity-2="ig" data-source-line="152" data-uid="lnk34" id="link_product_ig"><path codeLine="152" d="M1547.34,956 C1702.1,956 1891,956 1891,956 C1891,956 1891,1064.87 1891,1121.47" fill="none" id="product-ig" style="stroke:#000000;stroke-width:1;stroke-dasharray:7,7;"/><line style="stroke:#000000;stroke-width:1;" x1="1537.34" x2="1529.34" y1="956" y2="962"/><line style="stroke:#000000;stroke-width:1;" x1="1537.34" x2="1529.34" y1="956" y2="950"/><line style="stroke:#000000;stroke-width:1;" x1="1537.34" x2="1529.34" y1="956" y2="956"/><ellipse cx="1543.34" cy="956" fill="none" rx="4" ry="4" style="stroke:#000000;stroke-width:1;"/><line style="stroke:#000000;stroke-width:1;" x1="1895" x2="1887" y1="1125.47" y2="1125.47"/><line style="stroke:#000000;stroke-width:1;" x1="1895" x2="1887" y1="1122.47" y2="1122.47"/><line style="stroke:#000000;stroke-width:1;" x1="1891" x2="1891" y1="1121.47" y2="1129.47"/></g><!--link product to pcm--><g class="link" data-entity-1="product" data-entity-2="pcm" data-source-line="153" data-uid="lnk35" id="link_product_pcm"><path codeLine="153" d="M1547.3,904 C1774.49,904 2136,904 2136,904 C2136,904 2136,1053.9 2136,1121.44" fill="none" id="product-pcm" style="stroke:#000000;stroke-width:1;stroke-dasharray:7,7;"/><line style="stroke:#000000;stroke-width:1;" x1="1537.3" x2="1529.3" y1="904" y2="910"/><line style="stroke:#000000;stroke-width:1;" x1="1537.3" x2="1529.3" y1="904" y2="898"/><line style="stroke:#000000;stroke-width:1;" x1="1537.3" x2="1529.3" y1="904" y2="904"/><ellipse cx="1543.3" cy="904" fill="none" rx="4" ry="4" style="stroke:#000000;stroke-width:1;"/><line style="stroke:#000000;stroke-width:1;" x1="2140" x2="2132" y1="1125.44" y2="1125.44"/><line style="stroke:#000000;stroke-width:1;" x1="2140" x2="2132" y1="1122.44" y2="1122.44"/><line style="stroke:#000000;stroke-width:1;" x1="2136" x2="2136" y1="1121.44" y2="1129.44"/></g><!--link product to pcv--><g class="link" data-entity-1="product" data-entity-2="pcv" data-source-line="154" data-uid="lnk36" id="link_product_pcv"><path codeLine="154" d="M1547,851 C1844.11,851 2418,851 2418,851 C2418,851 2418,1043.73 2418,1121.36" fill="none" id="product-pcv" style="stroke:#000000;stroke-width:1;stroke-dasharray:7,7;"/><line style="stroke:#000000;stroke-width:1;" x1="1537" x2="1529" y1="851" y2="857"/><line style="stroke:#000000;stroke-width:1;" x1="1537" x2="1529" y1="851" y2="845"/><line style="stroke:#000000;stroke-width:1;" x1="1537" x2="1529" y1="851" y2="851"/><ellipse cx="1543" cy="851" fill="none" rx="4" ry="4" style="stroke:#000000;stroke-width:1;"/><line style="stroke:#000000;stroke-width:1;" x1="2422" x2="2414" y1="1125.36" y2="1125.36"/><line style="stroke:#000000;stroke-width:1;" x1="2422" x2="2414" y1="1122.36" y2="1122.36"/><line style="stroke:#000000;stroke-width:1;" x1="2418" x2="2418" y1="1121.36" y2="1129.36"/></g><!--link product to sec--><g class="link" data-entity-1="product" data-entity-2="sec" data-source-line="155" data-uid="lnk37" id="link_product_sec"><path codeLine="155" d="M1547.03,799 C1892.32,799 2638,799 2638,799 C2638,799 2638,1034.74 2638,1121.38" fill="none" id="product-sec" style="stroke:#000000;stroke-width:1;stroke-dasharray:7,7;"/><line style="stroke:#000000;stroke-width:1;" x1="1537.03" x2="1529.03" y1="799" y2="805"/><line style="stroke:#000000;stroke-width:1;" x1="1537.03" x2="1529.03" y1="799" y2="793"/><line style="stroke:#000000;stroke-width:1;" x1="1537.03" x2="1529.03" y1="799" y2="799"/><ellipse cx="1543.03" cy="799" fill="none" rx="4" ry="4" style="stroke:#000000;stroke-width:1;"/><line style="stroke:#000000;stroke-width:1;" x1="2642" x2="2634" y1="1125.38" y2="1125.38"/><line style="stroke:#000000;stroke-width:1;" x1="2642" x2="2634" y1="1122.38" y2="1122.38"/><line style="stroke:#000000;stroke-width:1;" x1="2638" x2="2638" y1="1121.38" y2="1129.38"/></g><!--link co_purchase to product--><g class="link" data-entity-1="co_purchase" data-entity-2="product" data-source-line="157" data-uid="lnk38" id="link_co_purchase_product"><path codeLine="157" d="M1319.17,695.62 C1319.17,715.64 1319.17,713.36 1319.17,737.76" fill="none" id="co_purchase-product" style="stroke:#000000;stroke-width:1;stroke-dasharray:7,7;"/><line style="stroke:#000000;stroke-width:1;" x1="1319.17" x2="1313.17" y1="685.62" y2="677.62"/><line style="stroke:#000000;stroke-width:1;" x1="1319.17" x2="1325.17" y1="685.62" y2="677.62"/><line style="stroke:#000000;stroke-width:1;" x1="1319.17" x2="1319.17" y1="685.62" y2="677.62"/><ellipse cx="1319.17" cy="691.62" fill="none" rx="4" ry="4" style="stroke:#000000;stroke-width:1;"/><line style="stroke:#000000;stroke-width:1;" x1="1323.17" x2="1315.17" y1="741.76" y2="741.76"/><line style="stroke:#000000;stroke-width:1;" x1="1323.17" x2="1315.17" y1="738.76" y2="738.76"/><line style="stroke:#000000;stroke-width:1;" x1="1319.17" x2="1319.17" y1="737.76" y2="745.76"/><text fill="#000000" font-family="Verdana" font-size="13" lengthAdjust="spacing" textLength="42.9546" x="1276.17" y="708.7598">source</text></g><!--link co_purchase to product--><g class="link" data-entity-1="co_purchase" data-entity-2="product" data-source-line="158" data-uid="lnk39" id="link_co_purchase_product"><path codeLine="158" d="M1406.83,695.62 C1406.83,715.64 1406.83,713.36 1406.83,737.76" fill="none" id="co_purchase-product-1" style="stroke:#000000;stroke-width:1;stroke-dasharray:7,7;"/><line style="stroke:#000000;stroke-width:1;" x1="1406.83" x2="1400.83" y1="685.62" y2="677.62"/><line style="stroke:#000000;stroke-width:1;" x1="1406.83" x2="1412.83" y1="685.62" y2="677.62"/><line style="stroke:#000000;stroke-width:1;" x1="1406.83" x2="1406.83" y1="685.62" y2="677.62"/><ellipse cx="1406.83" cy="691.62" fill="none" rx="4" ry="4" style="stroke:#000000;stroke-width:1;"/><line style="stroke:#000000;stroke-width:1;" x1="1410.83" x2="1402.83" y1="741.76" y2="741.76"/><line style="stroke:#000000;stroke-width:1;" x1="1410.83" x2="1402.83" y1="738.76" y2="738.76"/><line style="stroke:#000000;stroke-width:1;" x1="1406.83" x2="1406.83" y1="737.76" y2="745.76"/><text fill="#000000" font-family="Verdana" font-size="13" lengthAdjust="spacing" textLength="39.4443" x="1366.83" y="708.7598">target</text></g><!--SRC=[fLPTYzms57tthr3dfMde1jB7OLb8Tvcm9DaEsKrUZLPMR17RSYHviqisa3IXfFIbb0PAoPP0IzB2GajfOQ7zHJkU_r1zMBObspE1lisSU-xLkTBHbJyI2SumA598yY0X4GQ8C9JYW3yaUG4Pp41ASYnE2Wme4maD0fmB8ax0v4Of4d2bEhketfrzCW6G0wYG9m40Lqa4fk0spMEmkJc_jRKbiOqD5IWvPZcKAqx1lc144-xbv569DUbg0Jb_J5dKn2N8QAhujmaNcmRS2fwsEkxY1mppv80-n3cuidXtllp-vUBjg-gRDs3vrTlbyp-CE6PeeT2yrIeDPqHYhmK5ukE2i9CTA71TiglmdioGE_NbUVNZRzLFtnezgameuA7iRRKOVwqYeRa3m2YIdN47Ge8SATBdL6uUp2M4qlBm3iuECTiNK9GE_G7a2Q7v7dxCPmpBJdDquhIdJZRiAfmfXPqMvun69HAoonVFbz-zCYqMDQZxg_-OAhkvmB7S5AzLoq4qmYtBHa9_9o8i84d327FaR10ZIFTEuXsCI0PJ3PhIoibXJXqDCwF1Kc96oy9gs4xa9K2YouiPB1A2O1h2ei0odAEnaeYcj6HknVwwc24iZoiAQ_eHJ4liRzGOEODSgXjXHrZUOP79KneHIF887w_erSID_k4A74klqNma6aEcLn-lq3VHRWPZR9q4ghE_5hzVLE-VEPuAYIQjTjQdODPnbyu8IvQsNkcllI_F4oNDufT_FgjUV0qsmFtFtEMvuNsei_-tVGV4-vxsnuJZPZywx66FvBYtLt_OjMjfjL_xcz4wrGiP3mwZmzeQJ_fTksvqeXqlVC4YFR1__dTnVc7EdIheWyQrdkkzKIa3kaJpGiYjLxyFI8PLa7ipsLUpexrYDG5fp-gb8ysOQOqsGnqID-9X6tvKGgF66yezftPqRzDvAUy8vF8kBr__UldF3-3ox_F5-r-Mhz-0xZE1Q5XOvchzN1f8-dIDM05PZCKw5aUKAV6pb48nC0aEvAKoLzuyO9rDgj-GAPZVaebUtatbBPCO-udjE-3bRkkxqQQY9hNtWdYPEyszqOdo6ZLodU7lfTqqDw5TCMvMz4UsdsadnurcS9W2i2am_3vwTNRL_TMP93gsgUrpDCHkrPBOpHZHEhV3n-pl7JrwpDcWh3cSqHTrTRNxQjxLnOv6YzcttAkrRoQKJfVJogQtZsdD3pu6Tt4A5IW_qGeUT3uRJq-lNJizDL_TKp2vFhq-ySFqYJEvD6jl4dGnXrPF4PTNWq-fNiv-r4dEdbeni40jntsWhIvBiaL43ubz1FKGPMuVYtki6Fg8D5WFwgL9H_IX8n-I1nG4tO7LtnKpf2PhM6P8JOB_0000]--></g></svg>